<?xml version="1.0" encoding="UTF-8" standalone="no"?>
<!-- Generator: Adobe Illustrator 15.0.2, SVG Export Plug-In . SVG Version: 6.00 Build 0)  -->

<svg
   xmlns:dc="http://purl.org/dc/elements/1.1/"
   xmlns:cc="http://creativecommons.org/ns#"
   xmlns:rdf="http://www.w3.org/1999/02/22-rdf-syntax-ns#"
   xmlns:svg="http://www.w3.org/2000/svg"
   xmlns="http://www.w3.org/2000/svg"
   xmlns:sodipodi="http://sodipodi.sourceforge.net/DTD/sodipodi-0.dtd"
   xmlns:inkscape="http://www.inkscape.org/namespaces/inkscape"
   version="1.1"
   id="svg7854"
   sodipodi:version="0.32"
   inkscape:version="0.48.4 r9939"
   sodipodi:docname="shuffle.svg"
   inkscape:output_extension="org.inkscape.output.svg.inkscape"
   inkscape:export-filename="/home/lapo/Icone/gnome-icon-theme/32x32/status/media-playlist-repeat.png"
   inkscape:export-xdpi="90"
   inkscape:export-ydpi="90"
   x="0px"
   y="0px"
   width="60.1875"
   height="44.03125"
   viewBox="6.5 10.5 60.187501 44.03125"
   enable-background="new 6.5 10.5 34 28"
   xml:space="preserve"><metadata
   id="metadata83"><rdf:RDF><cc:Work
       rdf:about=""><dc:format>image/svg+xml</dc:format><dc:type
         rdf:resource="http://purl.org/dc/dcmitype/StillImage" /></cc:Work></rdf:RDF></metadata><defs
   id="defs81" />
<sodipodi:namedview
   width="48px"
   height="48px"
   gridtolerance="15.1"
   borderopacity="1"
   bordercolor="#afafaf"
   pagecolor="#ffffff"
   guidetolerance="10"
   id="base"
   inkscape:zoom="6.0232798"
   objecttolerance="10"
   inkscape:pageopacity="0"
   inkscape:pageshadow="2"
   inkscape:cx="33.900562"
   inkscape:cy="15.612812"
   inkscape:document-units="px"
   inkscape:current-layer="svg7854"
   inkscape:showpageshadow="false"
   inkscape:window-width="1366"
   inkscape:window-height="709"
   inkscape:window-x="0"
   inkscape:window-y="27"
   showgrid="false"
   showguides="false"
   inkscape:grid-points="false"
   showborder="true"
   inkscape:guide-bbox="false"
   inkscape:grid-bbox="true"
   inkscape:object-paths="false"
   inkscape:window-maximized="1"
   fit-margin-top="0"
   fit-margin-left="0"
   fit-margin-right="0"
   fit-margin-bottom="0"
   borderlayer="false">
	<sodipodi:guide
   id="guide7377"
   orientation="horizontal"
   position="12.75,35.099519" />
	<sodipodi:guide
   id="guide7379"
   orientation="horizontal"
   position="12.75,32.437461" />
	<sodipodi:guide
   id="guide7492"
   orientation="horizontal"
   position="12.75,62.499907" />
	<sodipodi:guide
   id="guide7046"
   orientation="horizontal"
   position="12.75,77.437461" />
	<sodipodi:guide
   id="guide7233"
   orientation="horizontal"
   position="12.75,8.937461" />
	<sodipodi:guide
   id="guide7235"
   orientation="horizontal"
   position="12.75,-2.562539" />
	<sodipodi:guide
   id="guide6795"
   orientation="horizontal"
   position="12.75,70.985188" />
	<sodipodi:guide
   id="guide6797"
   orientation="horizontal"
   position="12.75,43.408024" />
	<sodipodi:guide
   id="guide6914"
   orientation="horizontal"
   position="12.75,49.948762" />
<inkscape:grid
   id="GridFromPre046Settings"
   type="xygrid"
   originx="12.75px"
   originy="26.437461px"
   spacingx="0.5px"
   spacingy="0.5px"
   color="#3f3fff"
   empcolor="#3f3fff"
   opacity="0.15"
   empopacity="0.38"
   empspacing="2"
   visible="true"
   enabled="true"
   snapvisiblegridlinesonly="true" /></sodipodi:namedview>
<g
   id="layer1"
   inkscape:label="Layer 1"
   inkscape:groupmode="layer"
   transform="translate(12.75,-10.40625)"
   style="display:inline">
	<g
   id="g7411"
   transform="translate(0,50)">
		
		
			
		<path
   id="path6793"
   d="m 38.86,13.078751 0,-5.76 -5.76,0 c -4.07424,0 -8.15424,-1.73376 -11.46048,-4.68096 -3.30624,-2.9472 -5.819519,-3.34975993 -5.819519,-8.5990399 0,-6.4051201 -3.91488,-9.6000001 -8.6400005,-9.6000001 -6.39168,0 -8.64,0 -8.64,0 l -3.84,0 0,-7.68 3.84,0 c 0,0 2.24832,0 8.64,0 8.7148805,0 16.3199995,3.28064 16.3199995,13.28 0,2.8128 1.3248,5.14176 3.30048,6.90048 1.97568,1.75872 4.61376,2.69952 6.29952,2.69952 l 5.76,0 0,-5.76 13.44,9.6 z"
   style="fill:#ffffff;fill-opacity:1;stroke:#41423f;stroke-width:3.125;stroke-linecap:square;stroke-linejoin:round;stroke-miterlimit:4;stroke-dasharray:none"
   inkscape:connector-curvature="0"
   sodipodi:nodetypes="ccssssccccsssscccc" />
		
			
		
			
		
		
			
		
			<path
   id="path6784"
   sodipodi:nodetypes="cccsssccccsssccccc"
   d="m 38.86,-27.241249 0,5.76 -5.76,0 c -4.07424,0 -8.15424,1.73376 -11.46048,4.68096 -3.30624,2.9472 -5.819519,7.34784 -5.819519,12.59904 0,6.40512 -3.91488,7.5999999 -8.6400005,7.5999999 -6.39168,0 -8.64,0 -8.64,0 l -3.84,0 0,7.6800001 3.84,0 c 0,0 2.24832,0 8.64,0 8.7148805,0 16.3199995,-5.27872 16.3199995,-15.28 0,-2.8128 1.3248,-5.14176 3.30048,-6.90048 1.97568,-1.75872 4.61376,-2.69952 6.29952,-2.69952 l 5.76,0 0,5.76 13.44,-9.6 z"
   style="fill:#ffffff;fill-opacity:1;stroke:#555753;stroke-width:3.125;stroke-linecap:square;stroke-linejoin:round;stroke-miterlimit:4;stroke-dasharray:none"
   inkscape:connector-curvature="0" />
		
			
		
			
		
			
	</g>

		</g>
</svg>