<?xml version="1.0" encoding="UTF-8" standalone="no"?>
<svg
   xmlns:dc="http://purl.org/dc/elements/1.1/"
   xmlns:cc="http://creativecommons.org/ns#"
   xmlns:rdf="http://www.w3.org/1999/02/22-rdf-syntax-ns#"
   xmlns:svg="http://www.w3.org/2000/svg"
   xmlns="http://www.w3.org/2000/svg"
   xmlns:sodipodi="http://sodipodi.sourceforge.net/DTD/sodipodi-0.dtd"
   xmlns:inkscape="http://www.inkscape.org/namespaces/inkscape"
   sodipodi:docname="next.svg"
   height="47.8125"
   sodipodi:version="0.32"
   width="34.0625"
   _SVGFile__filename="scalable/actions/3downarrow.svg"
   version="1.0"
   y="0"
   x="0"
   inkscape:version="0.48.3.1 r9886"
   id="svg1">
  <sodipodi:namedview
     bordercolor="#666666"
     inkscape:pageshadow="2"
     inkscape:window-y="27"
     pagecolor="#ffffff"
     inkscape:window-height="709"
     inkscape:zoom="9.8238822"
     inkscape:window-x="0"
     borderopacity="1.0"
     inkscape:cx="33.262767"
     inkscape:cy="22.226231"
     inkscape:window-width="1366"
     inkscape:pageopacity="0.0"
     id="base"
     showgrid="false"
     fit-margin-top="5"
     fit-margin-left="5"
     fit-margin-right="5"
     fit-margin-bottom="5"
     inkscape:window-maximized="1"
     inkscape:current-layer="svg1" />
  <defs
     id="defs3" />
  <path
     style="font-size:12px;fill:#b3b3b3;fill-opacity:1;fill-rule:evenodd;stroke:#3c3c3c;stroke-width:3.125;stroke-linecap:round;stroke-linejoin:round;stroke-opacity:1"
     d="m 20.75,41.25 6.28125,0 C 27.290852,41.25 27.5,41.040852 27.5,40.78125 l 0,-33.75 C 27.5,6.771648 27.290854,6.562499 27.03125,6.5625 l -6.28125,0 c -0.259602,0 -0.46875,0.209149 -0.46875,0.46875 l 0,13.40625 L 6.5625,6.71875 l 0,34.34375 13.71875,-13.9375 0,13.65625 c 0,0.259602 0.20915,0.46875 0.46875,0.46875 z"
     id="path930"
     inkscape:connector-curvature="0"
     sodipodi:nodetypes="sssssssccccss" />
  <metadata
     id="metadata5">
    <rdf:RDF>
      <cc:Work
         rdf:about="">
        <dc:title>Part of the Flat Icon Collection (Thu Aug 26 14:38:01 2004)</dc:title>
        <dc:description />
        <dc:subject>
          <rdf:Bag>
            <rdf:li />
          </rdf:Bag>
        </dc:subject>
        <dc:publisher>
          <cc:Agent
             rdf:about="">
            <dc:title />
          </cc:Agent>
        </dc:publisher>
        <dc:creator>
          <cc:Agent
             rdf:about="">
            <dc:title>Danny Allen</dc:title>
          </cc:Agent>
        </dc:creator>
        <dc:rights>
          <cc:Agent
             rdf:about="">
            <dc:title>Danny Allen</dc:title>
          </cc:Agent>
        </dc:rights>
        <dc:date />
        <dc:format>image/svg+xml</dc:format>
        <dc:type
           rdf:resource="http://purl.org/dc/dcmitype/StillImage" />
        <cc:license
           rdf:resource="http://creativecommons.org/licenses/LGPL/2.1/">
          <dc:date />
        </cc:license>
        <dc:language>en</dc:language>
      </cc:Work>
    </rdf:RDF>
  </metadata>
  <path
     style="fill:#ffffff"
     d="m 21.901575,33.419221 c -6.11e-4,-3.429143 -0.03012,-6.410317 -0.06556,-6.624832 -0.139827,-0.846272 -1.149837,-1.441858 -2.016048,-1.188825 -0.448596,0.131041 -0.672477,0.349053 -7.923352,7.715647 l -3.73594,3.795563 0,-13.260192 0,-13.260192 5.674946,5.660916 c 5.067159,5.054631 5.716742,5.66831 6.065203,5.729959 0.801263,0.141758 1.490537,-0.201503 1.807914,-0.900345 0.178102,-0.392169 0.189623,-0.791883 0.191724,-6.652047 l 0.0022,-6.234806 1.984959,0 1.984958,0 0,15.72698 0,15.72698 -1.984958,0 -1.984959,0 -0.0011,-6.234806 -10e-7,0 z"
     id="path2982"
     inkscape:connector-curvature="0" />
</svg>
