<?xml version="1.0" encoding="UTF-8" standalone="no"?>
<!-- Generator: Adobe Illustrator 15.0.2, SVG Export Plug-In . SVG Version: 6.00 Build 0)  -->

<svg
   xmlns:dc="http://purl.org/dc/elements/1.1/"
   xmlns:cc="http://creativecommons.org/ns#"
   xmlns:rdf="http://www.w3.org/1999/02/22-rdf-syntax-ns#"
   xmlns:svg="http://www.w3.org/2000/svg"
   xmlns="http://www.w3.org/2000/svg"
   xmlns:sodipodi="http://sodipodi.sourceforge.net/DTD/sodipodi-0.dtd"
   xmlns:inkscape="http://www.inkscape.org/namespaces/inkscape"
   version="1.1"
   id="svg7854"
   sodipodi:version="0.32"
   inkscape:version="0.48.4 r9939"
   sodipodi:docname="shuffle.svg"
   inkscape:output_extension="org.inkscape.output.svg.inkscape"
   inkscape:export-filename="/home/lapo/Icone/gnome-icon-theme/32x32/status/media-playlist-repeat.png"
   inkscape:export-xdpi="90"
   inkscape:export-ydpi="90"
   x="0px"
   y="0px"
   width="60.1875"
   height="44.03125"
   viewBox="6.5 10.5 60.187501 44.03125"
   enable-background="new 6.5 10.5 34 28"
   xml:space="preserve"><metadata
   id="metadata83"><rdf:RDF><cc:Work
       rdf:about=""><dc:format>image/svg+xml</dc:format><dc:type
         rdf:resource="http://purl.org/dc/dcmitype/StillImage" /></cc:Work></rdf:RDF></metadata><defs
   id="defs81" />
<sodipodi:namedview
   width="48px"
   height="48px"
   gridtolerance="15.1"
   borderopacity="1"
   bordercolor="#afafaf"
   pagecolor="#ffffff"
   guidetolerance="10"
   id="base"
   inkscape:zoom="6.0232798"
   objecttolerance="10"
   inkscape:pageopacity="0"
   inkscape:pageshadow="2"
   inkscape:cx="33.900562"
   inkscape:cy="15.612812"
   inkscape:document-units="px"
   inkscape:current-layer="g7411"
   inkscape:showpageshadow="false"
   inkscape:window-width="1366"
   inkscape:window-height="709"
   inkscape:window-x="0"
   inkscape:window-y="27"
   showgrid="false"
   showguides="false"
   inkscape:grid-points="false"
   showborder="true"
   inkscape:guide-bbox="false"
   inkscape:grid-bbox="true"
   inkscape:object-paths="false"
   inkscape:window-maximized="1"
   fit-margin-top="0"
   fit-margin-left="0"
   fit-margin-right="0"
   fit-margin-bottom="0"
   borderlayer="false">
	<sodipodi:guide
   id="guide7377"
   orientation="horizontal"
   position="12.75,35.099519" />
	<sodipodi:guide
   id="guide7379"
   orientation="horizontal"
   position="12.75,32.437461" />
	<sodipodi:guide
   id="guide7492"
   orientation="horizontal"
   position="12.75,62.499907" />
	<sodipodi:guide
   id="guide7046"
   orientation="horizontal"
   position="12.75,77.437461" />
	<sodipodi:guide
   id="guide7233"
   orientation="horizontal"
   position="12.75,8.937461" />
	<sodipodi:guide
   id="guide7235"
   orientation="horizontal"
   position="12.75,-2.562539" />
	<sodipodi:guide
   id="guide6795"
   orientation="horizontal"
   position="12.75,70.985188" />
	<sodipodi:guide
   id="guide6797"
   orientation="horizontal"
   position="12.75,43.408024" />
	<sodipodi:guide
   id="guide6914"
   orientation="horizontal"
   position="12.75,49.948762" />
<inkscape:grid
   id="GridFromPre046Settings"
   type="xygrid"
   originx="12.75px"
   originy="26.437461px"
   spacingx="0.5px"
   spacingy="0.5px"
   color="#3f3fff"
   empcolor="#3f3fff"
   opacity="0.15"
   empopacity="0.38"
   empspacing="2"
   visible="true"
   enabled="true"
   snapvisiblegridlinesonly="true" /></sodipodi:namedview>
<g
   id="layer1"
   inkscape:label="Layer 1"
   inkscape:groupmode="layer"
   transform="translate(12.75,-10.40625)">
	<g
   id="g7411"
   transform="translate(0,50)">
		<g
   id="g6954"
   transform="translate(0,-50)"
   style="opacity:0.5">
			
				<linearGradient
   id="path6939_1_"
   gradientUnits="userSpaceOnUse"
   x1="15.0229"
   y1="799.93262"
   x2="15.0229"
   y2="792.49829"
   gradientTransform="translate(8.4854,-768)">
				<stop
   offset="0"
   style="stop-color:#FFFFFF;stop-opacity:0.9708"
   id="stop17" />
				<stop
   offset="0.25"
   style="stop-color:#000000;stop-opacity:0.2353"
   id="stop19" />
				<stop
   offset="0.8"
   style="stop-color:#000000;stop-opacity:0.2353"
   id="stop21" />
				<stop
   offset="1"
   style="stop-color:#000000;stop-opacity:0"
   id="stop23" />
			</linearGradient>
			
			
				<linearGradient
   id="path6906_1_"
   gradientUnits="userSpaceOnUse"
   x1="15.0229"
   y1="6.9326"
   x2="15.0229"
   y2="-0.50169998"
   gradientTransform="matrix(1,0,0,-1,8.5,24)">
				<stop
   offset="0"
   style="stop-color:#000000;stop-opacity:0.2353"
   id="stop27" />
				<stop
   offset="0.25"
   style="stop-color:#FFFFFF"
   id="stop29" />
				<stop
   offset="0.8"
   style="stop-color:#FFFFFF"
   id="stop31" />
				<stop
   offset="1"
   style="stop-color:#FFFFFF;stop-opacity:0"
   id="stop33" />
			</linearGradient>
			
		</g>
		
			<radialGradient
   id="path6793_1_"
   cx="-181.23241"
   cy="115.6318"
   r="15.5"
   gradientTransform="matrix(3.9412,0,0,-1.7889,745.2798,187.9753)"
   gradientUnits="userSpaceOnUse">
			<stop
   offset="0"
   style="stop-color:#D3D7CF"
   id="stop37" />
			<stop
   offset="1"
   style="stop-color:#92948F"
   id="stop39" />
		</radialGradient>
		<path
   id="path6793"
   d="m 38.86,13.078751 v -5.76 H 33.1 c -4.07424,0 -8.15424,-1.73376 -11.46048,-4.68096 -3.30624,-2.9472 -5.819519,-7.34976 -5.819519,-12.59904 0,-6.40512 -3.91488,-9.6 -8.6400005,-9.6 -6.39168,0 -8.64,0 -8.64,0 h -3.84 v -7.68 h 3.84 c 0,0 2.24832,0 8.64,0 8.7148805,0 16.3199995,7.28064 16.3199995,17.28 0,2.8128 1.3248,5.14176 3.30048,6.90048 1.97568,1.75872 4.61376,2.69952 6.29952,2.69952 h 5.76 v -5.76 l 13.44,9.6 -13.44,9.6 z"
   style="fill:#ffffff;stroke:#41423f;stroke-width:1.91999995999999995;stroke-linecap:square;fill-opacity:1"
   inkscape:connector-curvature="0" />
		<linearGradient
   id="path6854_1_"
   gradientUnits="userSpaceOnUse"
   x1="-254.2764"
   y1="345.92291"
   x2="-242.6091"
   y2="331.7807">
			<stop
   offset="0"
   style="stop-color:#EEEEEC"
   id="stop43" />
			<stop
   offset="1"
   style="stop-color:#FFFFFF"
   id="stop45" />
		</linearGradient>
		
			<path
   id="path6854"
   inkscape:original="M 8.5 15.5 L 8.5 19.5 L 10.5 19.5 C 10.5 19.5 11.671618 19.5 15 19.5 C 17.460874 19.5 19.5 21.16397 19.5 24.5 C 19.5 27.234921 20.809478 29.528558 22.53125 31.0625 C 24.253022 32.596442 26.377778 33.499999 28.5 33.5 L 31.5 33.5 L 31.5 36.5 L 38.5 31.5 L 31.5 26.5 L 31.5 29.5 L 28.5 29.5 C 27.622222 29.5 26.246978 29.009808 25.21875 28.09375 C 24.190522 27.177692 23.5 25.965079 23.5 24.5 C 23.5 19.29144 19.539126 15.5 15 15.5 C 11.671618 15.5 10.5 15.5 10.5 15.5 L 8.5 15.5 z "
   inkscape:radius="-0.8125"
   sodipodi:type="inkscape:offset"
   d="m 9.3125,16.3125 0,2.375 1.1875,0 4.5,0 c 1.413566,0 2.766294,0.497513 3.75,1.5 0.983706,1.002487 1.5625,2.47894 1.5625,4.3125 0,2.475571 1.175817,4.566296 2.75,5.96875 1.592203,1.418508 3.545898,2.218749 5.4375,2.21875 l 3,0 A 0.81258125,0.81258125 0 0 1 32.3125,33.5 l 0,1.4375 4.8125,-3.4375 -4.8125,-3.4375 0,1.4375 A 0.81258125,0.81258125 0 0 1 31.5,30.3125 l -3,0 c -1.18027,0 -2.623091,-0.565344 -3.8125,-1.625 -1.159234,-1.032772 -2,-2.467122 -2,-4.1875 0,-4.796647 -3.600817,-8.1875 -7.6875,-8.1875 l -4.5,0 -1.1875,0 z"
   style="fill:none;stroke:url(#path6854_1_);stroke-width:0.80000001;stroke-linecap:square" />
		
			<radialGradient
   id="path6876_1_"
   cx="13.0781"
   cy="168.33591"
   r="3.1719"
   gradientTransform="matrix(1,0,0,-2.2315,8.5,350.1284)"
   gradientUnits="userSpaceOnUse">
			<stop
   offset="0"
   style="stop-color:#000000"
   id="stop49" />
			<stop
   offset="1"
   style="stop-color:#000000;stop-opacity:0"
   id="stop51" />
		</radialGradient>
		<path
   id="path6876"
   enable-background="new    "
   d="m 20.969,-32.594 c -1.15,1.183 -2.069,2.667 -2.562,4.406 0.401,0.681 0.625,1.562 0.625,2.688 0,2.888 1.379,5.295 3.188,6.906 0.062,0.055 0.125,0.103 0.188,0.156 1.127,-1.299 1.956,-2.918 2.344,-4.719 -0.479,-0.68 -0.781,-1.451 -0.781,-2.344 -0.002,-2.899 -1.176,-5.393 -3.002,-7.093 z"
   style="opacity:0.6;fill:none"
   inkscape:connector-curvature="0" />
		
			<radialGradient
   id="path6784_1_"
   cx="-188.52049"
   cy="163.43649"
   r="15.5"
   gradientTransform="matrix(4.096,0,0,-2.2938,798.5073,355.8482)"
   gradientUnits="userSpaceOnUse">
			<stop
   offset="0"
   style="stop-color:#EEEEEC"
   id="stop55" />
			<stop
   offset="1"
   style="stop-color:#92948F"
   id="stop57" />
		</radialGradient>
		
			<path
   id="path6784"
   sodipodi:nodetypes="cccsssccccsssccccc"
   d="m 38.86,-27.241249 v 5.76 H 33.1 c -4.07424,0 -8.15424,1.73376 -11.46048,4.68096 -3.30624,2.9472 -5.819519,7.34784 -5.819519,12.59904 0,6.40512 -3.91488,9.6 -8.6400005,9.6 -6.39168,0 -8.64,0 -8.64,0 h -3.84 v 7.68 h 3.84 c 0,0 2.24832,0 8.64,0 8.7148805,0 16.3199995,-7.27872 16.3199995,-17.28 0,-2.8128 1.3248,-5.14176 3.30048,-6.90048 1.97568,-1.75872 4.61376,-2.69952 6.29952,-2.69952 h 5.76 v 5.76 l 13.44,-9.6 -13.44,-9.6 z"
   style="fill:#ffffff;stroke:#555753;stroke-width:1.91999995999999995;stroke-linecap:square;fill-opacity:1"
   inkscape:connector-curvature="0" />
		
			
		
			<linearGradient
   id="path6820_1_"
   gradientUnits="userSpaceOnUse"
   x1="-16.247601"
   y1="-65.258797"
   x2="44.754299"
   y2="-34.7579"
   gradientTransform="matrix(1,0,0,-1,8.5,-76)">
			<stop
   offset="0"
   style="stop-color:#FFFFFF"
   id="stop62" />
			<stop
   offset="0.2097"
   style="stop-color:#FFFFFF;stop-opacity:0"
   id="stop64" />
			<stop
   offset="0.3494"
   style="stop-color:#FFFFFF;stop-opacity:0.8107"
   id="stop66" />
			<stop
   offset="0.4285"
   style="stop-color:#FFFFFF;stop-opacity:0"
   id="stop68" />
			<stop
   offset="0.5213"
   style="stop-color:#FFFFFF"
   id="stop70" />
			<stop
   offset="0.5575"
   style="stop-color:#FFFFFF;stop-opacity:0"
   id="stop72" />
			<stop
   offset="0.71"
   style="stop-color:#FFFFFF;stop-opacity:0.568"
   id="stop74" />
			<stop
   offset="0.7439"
   style="stop-color:#FFFFFF;stop-opacity:0"
   id="stop76" />
			<stop
   offset="1"
   style="stop-color:#FFFFFF;stop-opacity:0"
   id="stop78" />
		</linearGradient>
		
			
	</g>
</g>
</svg>